<svg xmlns="http://www.w3.org/2000/svg" viewBox="0 0 240 240" role="img" aria-label="Símbolo Psi - Jéssica Machado">
  <!-- PLACEHOLDER: substituir pelo logo oficial (Ψ + floral) em alta -->
  <g fill="none" stroke="#C27B83" stroke-width="2.2" stroke-linecap="round">
    <!-- ramo floral -->
    <path d="M150 150 C168 120 178 96 176 70" />
    <path d="M176 70 q-10 -8 -18 -6 q6 10 18 6 Z" fill="#C27B83" fill-opacity="0.18"/>
    <path d="M165 104 q-12 -6 -20 -2 q8 10 20 2 Z" fill="#C27B83" fill-opacity="0.18"/>
    <path d="M158 126 q12 -8 22 -4 q-8 10 -22 4 Z" fill="#C27B83" fill-opacity="0.18"/>
    <path d="M150 150 q-6 4 -8 12" />
    <circle cx="142" cy="166" r="2.4" fill="#C27B83" stroke="none"/>
    <circle cx="184" cy="64" r="2.4" fill="#C27B83" stroke="none"/>
  </g>
  <!-- letra Psi -->
  <g fill="#9E1B32">
    <path d="M112 60 h16 v118 h-16 z"/>
    <path d="M120 60 c0 36 -14 58 -40 58 v-15 c16 0 24 -14 24 -43 z"/>
    <path d="M120 60 c0 36 14 58 40 58 v-15 c-16 0 -24 -14 -24 -43 z"/>
    <rect x="96" y="174" width="48" height="12" rx="2"/>
  </g>
</svg>
